HIERARCHY
ROOT Hips
{
	OFFSET 0.000000 0.000000 0.000000 
	CHANNELS 6 Xposition Yposition Zposition Zrotation Yrotation Xrotation
	JOINT LeftUpLeg
	{
		OFFSET 1.363060 -1.794630 0.839290 
		CHANNELS 3 Zrotation Yrotation Xrotation
		JOINT LeftLeg
		{
			OFFSET 2.448110 -6.726130 0.000000 
			CHANNELS 3 Zrotation Yrotation Xrotation
			JOINT LeftFoot
			{
				OFFSET 2.562200 -7.039590 0.000000 
				CHANNELS 3 Zrotation Yrotation Xrotation
				JOINT LeftToeBase
				{
					OFFSET 0.157640 -0.433110 2.322550 
					CHANNELS 3 Zrotation Yrotation Xrotation
					End Site
					{
						OFFSET 0.000000 0.000000 0.000000 
					}
				}
			}
		}
	}
	JOINT RightUpLeg
	{
		OFFSET -1.305520 -1.794630 0.839290 
		CHANNELS 3 Zrotation Yrotation Xrotation
		JOINT RightLeg
		{
			OFFSET -2.542530 -6.985550 0.000000 
			CHANNELS 3 Zrotation Yrotation Xrotation
			JOINT RightFoot
			{
				OFFSET -2.568260 -7.056230 0.000000 
				CHANNELS 3 Zrotation Yrotation Xrotation
				JOINT RightToeBase
				{
					OFFSET -0.164730 -0.452590 2.363150 
					CHANNELS 3 Zrotation Yrotation Xrotation
					End Site
					{
						OFFSET 0.000000 0.000000 0.000000 
					}
				}
			}
		}
	}
	JOINT Spine
	{
		OFFSET 0.028270 2.035590 -0.193380 
		CHANNELS 3 Zrotation Yrotation Xrotation
		JOINT Spine1
		{
			OFFSET 0.056720 2.048850 -0.042750 
			CHANNELS 3 Zrotation Yrotation Xrotation
			JOINT Neck1
			{
				OFFSET -0.054170 1.746240 0.172020 
				CHANNELS 3 Zrotation Yrotation Xrotation
				JOINT Head
				{
					OFFSET 0.104070 1.761360 -0.123970 
					CHANNELS 3 Zrotation Yrotation Xrotation
					End Site
					{
						OFFSET 0.000000 0.000000 0.000000 
					}
				}
			}
			JOINT LeftArm
			{
				OFFSET 3.362410 1.200890 -0.311210 
				CHANNELS 3 Zrotation Yrotation Xrotation
				JOINT LeftForeArm
				{
					OFFSET 4.983000 -0.000000 -0.000000 
					CHANNELS 3 Zrotation Yrotation Xrotation
					JOINT LeftHand
					{
						OFFSET 3.483560 -0.000000 -0.000000 
						CHANNELS 3 Zrotation Yrotation Xrotation
						JOINT LeftHandIndex1
						{
							OFFSET 0.715260 -0.000000 -0.000000 
							CHANNELS 3 Zrotation Yrotation Xrotation
							End Site
							{
								OFFSET 0.000000 0.000000 0.000000 
							}
						}
					}
				}
			}
			JOINT RightArm
			{
				OFFSET -3.136600 1.374050 -0.404650 
				CHANNELS 3 Zrotation Yrotation Xrotation
				JOINT RightForeArm
				{
					OFFSET -5.241900 -0.000000 -0.000000 
					CHANNELS 3 Zrotation Yrotation Xrotation
					JOINT RightHand
					{
						OFFSET -3.444170 -0.000000 -0.000000 
						CHANNELS 3 Zrotation Yrotation Xrotation
						JOINT RightHandIndex1
						{
							OFFSET -0.622530 -0.000000 -0.000000 
							CHANNELS 3 Zrotation Yrotation Xrotation
							End Site
							{
								OFFSET 0.000000 0.000000 0.000000 
							}
						}
					}
				}
			}
		}
	}
}
MOTION
Frames: 18
Frame Time: 0.041667
-1.268670 18.150775 -3.036264 1.229769 -8.509822 4.033062 -12.104315 -10.351357 -11.430468 0.040001 5.834418 20.448989 -4.063981 16.329412 -13.262214 0.009500 0.630800 1.733400 18.055103 25.424354 -6.864507 -1.947979 -6.586992 24.916980 3.766890 -14.164862 -9.666578 -0.006500 0.519500 -1.427500 -7.025922 -0.582611 11.347322 3.785046 0.178029 -7.034504 22.098687 -9.253764 9.025153 6.820700 -3.822900 4.788400 -81.181206 0.556354 12.052594 10.751500 -16.279506 -1.567431 -1.267146 -0.800047 11.917925 -7.125000 0.000000 0.000000 72.430504 -7.172573 20.085224 -14.866265 19.290589 -3.232215 1.195483 0.004006 18.425177 7.125000 0.000000 0.000000 
-1.268379 18.149416 -3.039371 1.289061 -8.425754 3.999141 -12.139137 -10.413385 -11.334412 0.019982 5.795097 20.348428 -3.999226 16.137023 -13.296862 0.013400 0.747900 2.055300 17.991511 25.356091 -6.889526 -1.956054 -6.605841 24.966838 3.764008 -14.163095 -9.694783 -0.007000 0.539000 -1.481100 -7.029644 -0.523675 11.455797 3.763665 0.203308 -7.043134 22.123031 -9.250029 9.023656 6.830000 -3.820100 4.791800 -81.156652 0.680554 12.321706 10.991764 -16.669729 -1.649583 -1.250543 -0.824510 11.643801 -7.125000 0.000000 0.000000 72.268044 -7.197975 20.307037 -14.867485 19.272661 -3.184677 1.196240 0.411859 18.169007 7.125000 0.000000 0.000000 
-1.268379 18.151066 -3.042090 1.426818 -8.308860 3.959659 -12.264326 -10.449809 -11.275955 0.017514 5.780182 20.330282 -3.974734 16.063836 -13.286431 0.011900 0.702900 1.931700 17.832327 25.212914 -6.936338 -1.951585 -6.608443 24.954975 3.747830 -14.114313 -9.698970 -0.007900 0.572300 -1.572700 -7.161530 -0.477383 11.624860 3.755538 0.214800 -6.983054 22.125237 -9.211055 8.821588 6.839000 -3.816500 4.736100 -81.094544 0.694339 12.498686 11.172733 -16.963510 -1.713640 -1.238973 -0.837900 11.363060 -7.125000 0.000000 0.000000 72.161088 -7.113306 20.214348 -14.873428 19.310284 -3.223449 1.156178 0.209617 18.479797 7.125000 0.000000 0.000000 
-1.268865 18.153397 -3.046945 1.345945 -8.206048 4.006162 -12.151861 -10.604773 -11.245576 0.005730 5.763360 20.271019 -3.975903 16.066309 -13.314747 0.014700 0.783600 2.153500 17.908530 25.151352 -7.009373 -1.954219 -6.608835 24.970488 3.741079 -14.101979 -9.739802 -0.007800 0.569800 -1.565700 -7.113357 -0.412357 11.717615 3.638859 0.237111 -6.985736 22.119583 -9.174997 8.719579 6.840900 -3.804400 4.712000 -81.000917 0.665855 12.772630 11.288718 -17.158376 -1.756759 -1.234897 -0.845257 10.959860 -7.125000 0.000000 0.000000 72.039476 -7.079355 20.382798 -14.784838 19.186623 -3.186039 1.202630 0.085291 17.348728 7.125000 0.000000 0.000000 
-1.268573 18.153591 -3.051898 1.338278 -8.127117 4.036183 -12.119445 -10.820327 -11.184247 -0.006720 5.742784 20.219377 -3.969079 16.075864 -13.459006 0.021300 0.942800 2.591500 17.891377 25.088623 -7.103762 -1.957458 -6.615030 24.990118 3.737647 -14.096262 -9.758119 -0.006500 0.519600 -1.427800 -7.091720 -0.353430 11.806160 3.568794 0.260496 -6.996385 22.083372 -9.110195 8.652530 6.836000 -3.775500 4.695000 -80.934942 0.716100 13.057947 11.487310 -17.480734 -1.829141 -1.225610 -0.848830 10.472311 -7.125000 0.000000 0.000000 71.873996 -7.033420 20.535581 -14.738914 19.096902 -3.119970 1.223119 0.400364 16.736741 7.125000 0.000000 0.000000 
-1.269350 18.153785 -3.055976 1.402172 -7.987644 4.074240 -12.156533 -10.913365 -11.186342 -0.014875 5.722718 20.171459 -3.942933 15.985421 -13.419149 0.022500 0.969400 2.664800 17.801599 25.012872 -7.208379 -1.961622 -6.627686 25.018638 3.738580 -14.107908 -9.798559 -0.004700 0.444200 -1.220600 -7.102070 -0.315057 11.850686 3.548099 0.278262 -6.996789 21.975610 -9.054068 8.605519 6.807000 -3.752200 4.677400 -80.898827 0.850674 13.385474 11.743761 -17.889621 -1.922761 -1.215103 -0.863362 10.045623 -7.125000 0.000000 0.000000 71.732389 -6.946992 19.428420 -14.918520 19.425400 -3.257529 1.066308 0.232146 20.247463 7.125000 0.000000 0.000000 
-1.270321 18.155922 -3.059666 1.529078 -7.774531 4.108456 -12.249864 -10.999432 -11.201375 -0.020207 5.703313 20.137270 -3.886047 15.793505 -13.340482 0.027200 1.064900 2.927300 17.636846 24.865082 -7.349477 -1.966464 -6.646683 25.052989 3.749734 -14.151454 -9.837938 -0.004500 0.434800 -1.194800 -7.096981 -0.341674 11.893992 3.585517 0.267673 -7.001789 21.859261 -8.982342 8.596028 6.783300 -3.718300 4.673300 -80.875327 0.910095 13.565954 11.910211 -18.154231 -1.984359 -1.206854 -0.879231 9.714241 -7.125000 0.000000 0.000000 71.533693 -6.861060 19.448543 -14.678138 19.102089 -3.174817 1.133793 -0.193659 19.257947 7.125000 0.000000 0.000000 
-1.272652 18.158543 -3.066658 1.583620 -7.552677 4.201438 -12.244770 -11.082732 -11.318099 -0.020792 5.698606 20.127123 -3.837524 15.607962 -13.196714 0.039700 1.286800 3.538200 17.553957 24.810660 -7.502584 -1.970305 -6.656052 25.072625 3.779825 -14.255875 -9.905180 -0.003000 0.353000 -0.969900 -7.077885 -0.361587 11.870918 3.597374 0.260369 -7.005104 21.656753 -8.918543 8.553019 6.726400 -3.695100 4.645500 -80.790592 0.954502 13.732052 12.053048 -18.381846 -2.037951 -1.200918 -0.899668 9.510956 -7.125000 0.000000 0.000000 71.359019 -6.788307 19.366015 -14.543674 18.893708 -3.085834 1.187597 -0.114759 19.232156 7.125000 0.000000 0.000000 
-1.277798 18.161068 -3.078601 1.507404 -7.292712 4.351645 -12.079576 -11.113229 -11.553150 -0.019118 5.705418 20.113334 -3.817382 15.461110 -12.874066 0.057500 1.548000 4.257900 17.636784 24.842043 -7.648371 -1.972384 -6.652578 25.081834 3.814765 -14.394083 -10.084814 -0.001300 0.235500 -0.647100 -7.007002 -0.351966 11.768594 3.534981 0.267263 -7.039978 21.453160 -8.882948 8.487550 6.662800 -3.690100 4.603100 -80.677649 1.041686 13.923565 12.232171 -18.667434 -2.106897 -1.192531 -0.910366 9.495423 -7.125000 0.000000 0.000000 71.198096 -6.785664 18.842765 -14.604447 19.004355 -3.114060 1.086324 0.062933 20.755229 7.125000 0.000000 0.000000 
-1.283236 18.161165 -3.085399 1.384886 -7.017648 4.470452 -11.895815 -10.992039 -11.821793 -0.010816 5.722705 20.126409 -3.776347 15.227829 -12.444933 0.065900 1.656100 4.556200 17.777937 24.811127 -7.740836 -1.973300 -6.643764 25.077033 3.882757 -14.631978 -10.263746 -0.000800 0.178800 -0.491200 -6.832890 -0.358649 11.796409 3.462817 0.262831 -7.029446 21.290493 -8.802085 8.323939 6.617700 -3.664900 4.545100 -80.574701 1.109968 14.179481 12.414858 -18.956155 -2.178873 -1.183794 -0.912918 9.211469 -7.125000 0.000000 0.000000 71.003665 -6.790026 19.210126 -14.541648 18.915055 -3.074177 1.178676 0.006820 19.399671 7.125000 0.000000 0.000000 
-1.287994 18.157767 -3.084233 1.378586 -6.791256 4.479521 -11.854547 -10.787010 -11.984018 0.002411 5.744993 20.177580 -3.679880 14.845779 -12.063614 0.047700 1.410000 3.877800 17.817056 24.710810 -7.735810 -1.973034 -6.638411 25.060814 3.974086 -14.923688 -10.355952 -0.001400 0.244900 -0.672800 -6.777490 -0.326933 11.901131 3.433197 0.276356 -7.021465 21.201509 -8.757925 8.416022 6.593500 -3.636100 4.570800 -80.441164 1.161613 14.541122 12.544862 -19.167154 -2.231747 -1.181063 -0.922191 8.794814 -7.125000 0.000000 0.000000 70.870047 -6.809184 19.553127 -14.478027 18.824077 -3.033544 1.277338 -0.055734 17.861963 7.125000 0.000000 0.000000 
-1.294403 18.155436 -3.087438 1.314422 -6.566990 4.522032 -11.735508 -10.683193 -12.132856 0.010845 5.767022 20.218627 -3.578440 14.468619 -11.779121 0.020100 0.916200 2.518300 17.938471 24.732442 -7.724220 -1.976658 -6.632179 25.053098 4.089335 -15.286858 -10.446591 -0.002400 0.317400 -0.872000 -6.682800 -0.275438 11.902103 3.368581 0.305526 -7.077183 21.043637 -8.729832 8.667563 6.545800 -3.607800 4.631100 -80.341184 1.229962 14.727328 12.668383 -19.369955 -2.281992 -1.184073 -0.925735 8.693986 -7.125000 0.000000 0.000000 70.718981 -6.726728 18.471020 -14.636420 19.100458 -3.129423 1.026953 0.190181 20.550638 7.125000 0.000000 0.000000 
-1.300909 18.157184 -3.096663 1.241807 -6.255286 4.582221 -11.586891 -10.678967 -12.301979 0.018695 5.790166 20.264507 -3.481309 14.119448 -11.568259 0.023200 0.982900 2.701900 18.068210 24.768916 -7.721477 -1.978156 -6.624312 25.050928 4.177991 -15.598159 -10.690220 -0.001300 0.234600 -0.644500 -6.552791 -0.257195 11.892917 3.321743 0.319124 -7.162348 20.820327 -8.674143 8.740368 6.485600 -3.581000 4.636600 -80.238078 1.239205 14.818740 12.779031 -19.549090 -2.327588 -1.179740 -0.920185 8.686608 -7.125000 0.000000 0.000000 70.560658 -6.715010 18.869880 -14.332862 18.633173 -2.956544 1.213791 0.085729 17.369416 7.125000 0.000000 0.000000 
-1.304599 18.158835 -3.105596 1.259937 -5.905852 4.632036 -11.546927 -10.519113 -12.530097 0.032001 5.813982 20.319715 -3.374391 13.705599 -11.165496 0.055500 1.520600 4.182400 18.077345 24.658485 -7.804589 -1.982479 -6.628621 25.062546 4.284256 -15.952281 -10.866950 -0.002800 0.339500 -0.932700 -6.436488 -0.240772 11.925967 3.304942 0.335119 -7.257148 20.623605 -8.648669 8.879022 6.428200 -3.558400 4.683600 -80.120337 1.135931 14.933671 12.825154 -19.633216 -2.348283 -1.177371 -0.928242 8.693113 -7.125000 0.000000 0.000000 70.336484 -6.634806 17.875088 -14.359844 18.731268 -2.997972 1.096521 0.013465 19.886585 7.125000 0.000000 0.000000 
-1.306638 18.158932 -3.111520 1.199498 -5.516110 4.679421 -11.440094 -10.271755 -12.772655 0.043573 5.835942 20.347321 -3.258004 13.220409 -10.540467 0.075500 1.772000 4.876000 18.169818 24.451258 -7.898118 -1.991784 -6.640377 25.102850 4.376616 -16.261826 -11.015390 -0.006400 0.515100 -1.415400 -6.238183 -0.250783 11.873373 3.235385 0.339557 -7.392020 20.601913 -8.624834 9.212848 6.428900 -3.521500 4.783500 -80.046103 1.146210 15.016055 12.903880 -19.771121 -2.381874 -1.177682 -0.941094 8.706029 -7.125000 0.000000 0.000000 70.087851 -6.674214 17.464109 -14.320862 18.724798 -3.000931 1.054804 -0.080974 20.806266 7.125000 0.000000 0.000000 
-1.311008 18.159126 -3.117832 1.289388 -5.057564 4.698097 -11.464975 -10.081556 -12.962683 0.051618 5.842341 20.351690 -3.140452 12.736993 -9.894558 0.067400 1.674600 4.607300 18.123718 24.363581 -7.959211 -2.003895 -6.663299 25.172044 4.456986 -16.558510 -11.290162 -0.005400 0.474600 -1.304000 -6.258570 -0.243190 11.859061 3.232381 0.346792 -7.459992 20.530879 -8.581355 9.249372 6.420100 -3.501100 4.786400 -79.934093 1.169448 15.139520 13.013839 -19.950287 -2.428456 -1.173648 -0.941760 8.639360 -7.125000 0.000000 0.000000 69.928846 -6.658358 17.117174 -14.237227 18.605420 -2.941176 1.074017 0.030125 20.712154 7.125000 0.000000 0.000000 
-1.315863 18.158738 -3.123949 1.498022 -4.530835 4.739835 -11.585706 -9.894917 -13.177905 0.058091 5.838881 20.340273 -3.021668 12.244296 -9.172510 0.039900 1.290000 3.547200 17.949089 24.208542 -8.105030 -2.017872 -6.695615 25.257645 4.530238 -16.835193 -11.569005 -0.002900 0.347500 -0.954700 -6.505495 -0.212133 11.902943 3.251095 0.354425 -7.433455 20.464052 -8.525973 9.000401 6.409500 -3.493200 4.711300 -79.775804 1.059180 15.059981 13.095157 -20.081648 -2.463795 -1.168954 -0.940039 8.837120 -7.125000 0.000000 0.000000 69.848320 -6.619645 16.584560 -14.178194 18.528282 -2.913085 1.055203 0.020715 20.818635 7.125000 0.000000 0.000000 
-1.318873 18.154659 -3.124920 1.639579 -4.058078 4.698656 -11.660683 -9.710729 -13.285677 0.061747 5.834550 20.331282 -2.878781 11.703355 -8.592714 0.012500 0.722700 1.986200 17.875686 24.082137 -8.111503 -2.035889 -6.731922 25.373167 4.596316 -17.116231 -11.966326 -0.001900 0.281500 -0.773400 -6.630928 -0.159276 12.072522 3.234746 0.369915 -7.393466 20.449355 -8.432509 8.857571 6.420100 -3.456600 4.669600 -79.661629 0.931553 14.748167 13.180991 -20.219817 -2.501881 -1.158941 -0.926148 9.232140 -7.125000 0.000000 0.000000 69.703717 -6.614687 16.214126 -14.041560 18.327737 -2.833803 1.094402 0.045592 20.660827 7.125000 0.000000 0.000000 
